<?xml version="1.0" standalone="no"?>
<!DOCTYPE svg PUBLIC "-//W3C//DTD SVG 20010904//EN"
 "http://www.w3.org/TR/2001/REC-SVG-20010904/DTD/svg10.dtd">
<svg version="1.0" xmlns="http://www.w3.org/2000/svg"
 width="512.000000pt" height="512.000000pt" viewBox="0 0 512.000000 512.000000"
 preserveAspectRatio="xMidYMid meet">

<g transform="translate(0.000000,512.000000) scale(0.100000,-0.100000)"
fill="#000000" stroke="none">
<path d="M3835 4752 c-192 -200 -353 -373 -357 -385 -3 -12 -16 -146 -28 -297
l-23 -275 -366 -367 -366 -368 -70 0 c-187 -1 -313 -47 -422 -156 -201 -201
-201 -512 -1 -712 201 -201 512 -203 713 -4 127 126 181 308 140 472 -5 22 32
63 359 389 l364 364 296 25 295 26 368 368 368 368 -340 0 -340 0 -118 118
-117 117 -2 339 -3 340 -350 -362z"/>
<path d="M2250 5075 c-769 -95 -1456 -541 -1865 -1208 -185 -303 -302 -635
-351 -997 -20 -150 -23 -470 -5 -610 75 -588 324 -1099 732 -1509 398 -397
883 -640 1456 -728 150 -23 536 -23 686 0 573 88 1058 331 1456 728 408 410
656 920 732 1509 18 138 15 469 -5 620 -31 234 -99 477 -181 653 l-27 58 -96
-90 c-54 -49 -139 -129 -191 -178 l-94 -88 32 -143 c86 -388 88 -714 6 -1042
-146 -583 -570 -1093 -1120 -1348 -1004 -466 -2178 -51 -2679 946 -277 551
-283 1196 -18 1763 161 344 442 661 765 861 478 298 1022 382 1562 244 55 -14
120 -32 144 -41 53 -18 61 -19 61 -3 0 7 86 99 191 204 l191 191 -129 50
c-216 85 -402 131 -631 158 -154 18 -475 18 -622 0z"/>
<path d="M2495 4073 c-410 -17 -814 -213 -1085 -525 -395 -457 -487 -1088
-238 -1633 189 -412 549 -718 987 -839 144 -40 228 -51 401 -51 173 0 257 11
401 51 438 121 798 427 987 839 176 385 185 808 25 1183 -28 65 -40 82 -54 80
-10 -2 -96 -86 -190 -187 -167 -180 -171 -185 -165 -220 28 -179 12 -396 -40
-549 -139 -409 -532 -692 -964 -692 -658 0 -1147 626 -986 1263 107 422 461
726 891 765 55 5 114 8 130 6 17 -1 72 -8 123 -15 l94 -12 194 194 c107 107
194 199 194 206 0 29 -352 120 -500 129 -41 3 -91 6 -110 7 -19 1 -62 1 -95 0z"/>
</g>
</svg>
