<?xml version="1.0" standalone="no"?>
<!DOCTYPE svg PUBLIC "-//W3C//DTD SVG 20010904//EN"
 "http://www.w3.org/TR/2001/REC-SVG-20010904/DTD/svg10.dtd">
<svg version="1.0" xmlns="http://www.w3.org/2000/svg"
 width="512.000000pt" height="512.000000pt" viewBox="0 0 512.000000 512.000000"
 preserveAspectRatio="xMidYMid meet">

<g transform="translate(0.000000,512.000000) scale(0.100000,-0.100000)"
fill="#000000" stroke="none">
<path d="M2495 5106 c-37 -17 -80 -62 -94 -99 -7 -17 -11 -119 -11 -256 0
-215 1 -229 23 -271 31 -63 76 -90 147 -90 71 0 116 27 148 90 21 42 22 56 22
272 0 249 -4 271 -56 320 -52 48 -119 61 -179 34z"/>
<path d="M1297 4716 c-50 -18 -76 -42 -98 -91 -22 -48 -24 -84 -5 -128 14 -34
219 -320 265 -371 52 -57 132 -71 201 -36 54 27 83 72 88 136 5 64 1 71 -145
274 -131 179 -139 188 -188 211 -47 22 -67 23 -118 5z"/>
<path d="M3705 4712 c-49 -24 -58 -33 -188 -212 -146 -203 -150 -210 -145
-274 12 -149 189 -210 289 -100 59 64 260 351 271 386 39 130 -105 257 -227
200z"/>
<path d="M2350 4094 c-630 -114 -1069 -687 -1010 -1316 23 -244 107 -448 275
-673 107 -142 280 -394 338 -491 l37 -62 0 -206 0 -206 565 0 565 0 0 200 0
199 71 113 c88 140 173 262 307 443 124 167 209 332 247 478 180 702 -269
1397 -981 1521 -108 19 -310 19 -414 0z"/>
<path d="M534 3682 c-106 -50 -132 -177 -53 -267 27 -30 54 -42 243 -105 127
-41 230 -70 255 -70 118 0 198 115 157 225 -28 72 -57 88 -283 161 -240 77
-263 81 -319 56z"/>
<path d="M4281 3631 c-118 -38 -226 -78 -240 -88 -33 -24 -71 -98 -71 -137 0
-83 84 -166 168 -166 28 0 123 26 258 70 189 63 216 75 243 105 62 71 61 167
-3 231 -29 29 -88 54 -126 54 -8 -1 -111 -32 -229 -69z"/>
<path d="M945 2545 c-5 -2 -103 -34 -218 -70 -179 -57 -212 -71 -242 -100 -63
-64 -67 -156 -9 -225 67 -80 111 -78 379 10 196 65 216 74 248 109 57 63 59
158 3 220 -37 42 -120 71 -161 56z"/>
<path d="M4075 2532 c-108 -51 -136 -177 -58 -262 32 -36 51 -45 248 -110 268
-88 312 -90 379 -10 58 69 54 161 -9 225 -30 29 -63 43 -242 101 -115 36 -224
68 -243 71 -21 2 -51 -4 -75 -15z"/>
<path d="M1510 1698 c-37 -19 -66 -53 -172 -198 -70 -96 -134 -189 -143 -207
-50 -103 38 -233 158 -233 73 0 106 30 241 215 148 202 156 217 156 274 0 123
-131 205 -240 149z"/>
<path d="M3485 1709 c-92 -28 -144 -149 -100 -233 9 -16 73 -108 143 -204 136
-187 165 -212 240 -212 119 0 206 131 157 233 -9 18 -73 111 -143 207 -106
146 -134 179 -172 198 -47 23 -76 26 -125 11z"/>
<path d="M2039 923 c-58 -36 -75 -111 -39 -170 39 -64 29 -63 562 -63 461 0
484 1 515 20 58 35 78 101 48 164 -32 68 -19 66 -567 66 -438 -1 -496 -2 -519
-17z"/>
<path d="M2053 451 c14 -122 110 -216 250 -245 15 -4 27 -13 27 -22 0 -24 36
-87 67 -116 40 -38 111 -68 163 -68 52 0 123 30 163 68 31 29 67 92 67 116 0
9 12 18 28 22 74 16 120 40 168 89 52 52 84 120 84 177 l0 28 -511 0 -512 0 6
-49z"/>
</g>
</svg>
